<?xml version="1.0" standalone="no"?>
<!DOCTYPE svg PUBLIC "-//W3C//DTD SVG 20010904//EN"
 "http://www.w3.org/TR/2001/REC-SVG-20010904/DTD/svg10.dtd">
<svg version="1.0" xmlns="http://www.w3.org/2000/svg"
 width="64.000000pt" height="64.000000pt" viewBox="0 0 64.000000 64.000000"
 preserveAspectRatio="xMidYMid meet">

<g transform="translate(0.000000,64.000000) scale(0.100000,-0.100000)"
fill="#000000" stroke="none">
<path d="M125 625 c-50 -18 -100 -71 -114 -122 -14 -50 -14 -317 0 -368 14
-51 73 -110 124 -124 52 -14 318 -14 370 0 51 14 110 73 124 124 14 52 14 318
0 370 -14 51 -73 110 -124 124 -59 16 -331 13 -380 -4z m146 -95 c17 -9 19
-22 19 -108 l0 -97 30 48 c29 45 32 47 74 47 25 0 47 -4 50 -9 4 -5 -10 -37
-30 -70 l-36 -61 45 -84 46 -84 -36 -4 c-78 -9 -93 -1 -122 66 l-26 61 -5 -65
c-5 -63 -6 -65 -34 -68 -15 -2 -39 -1 -52 2 l-24 6 0 209 c0 158 3 211 13 214
22 9 68 7 88 -3z"/>
</g>
</svg>
