<?xml version="1.0" standalone="no"?>
<!DOCTYPE svg PUBLIC "-//W3C//DTD SVG 20010904//EN"
 "http://www.w3.org/TR/2001/REC-SVG-20010904/DTD/svg10.dtd">
<svg version="1.0" xmlns="http://www.w3.org/2000/svg"
 width="128.000000pt" height="128.000000pt" viewBox="0 0 128.000000 128.000000"
 preserveAspectRatio="xMidYMid meet">

<g transform="translate(0.000000,128.000000) scale(0.100000,-0.100000)"
fill="#000000" stroke="none">
<path d="M540 1249 c6 -19 10 -35 10 -36 0 -1 32 -1 71 0 50 1 73 -2 76 -10 4
-10 -13 -13 -61 -13 -35 0 -67 -3 -69 -7 -2 -5 13 -64 34 -133 25 -81 35 -128
29 -134 -6 -6 -10 -13 -10 -17 0 -11 78 -39 111 -39 20 0 29 -4 26 -12 -6 -17
-60 -13 -117 9 l-44 16 -73 -79 c-40 -43 -73 -84 -73 -91 0 -7 12 -15 28 -19
72 -15 142 -55 142 -80 0 -19 -6 -18 -43 10 -32 24 -121 55 -131 45 -6 -6 -46
-268 -46 -299 0 -15 13 -23 57 -36 l56 -16 20 26 c18 25 22 26 118 26 94 0 99
-1 115 -25 19 -29 37 -27 122 11 42 18 52 28 48 41 -3 10 -15 54 -27 98 -12
44 -24 84 -26 88 -3 5 -14 -6 -25 -25 -19 -32 -56 -67 -70 -68 -16 0 -7 18 25
52 44 47 58 94 44 148 -10 38 -8 51 20 131 l32 88 -70 85 c-74 90 -88 96 -135
55 -11 -11 -23 -16 -27 -13 -12 12 14 46 44 56 l29 10 -20 26 c-11 14 -17 29
-13 33 4 4 102 12 218 18 115 7 210 13 212 14 1 2 -127 22 -285 46 -158 24
-297 45 -309 48 -21 5 -22 3 -13 -28z"/>
<path d="M1060 1005 c0 -8 -8 -19 -17 -25 -17 -10 -17 -10 0 -20 9 -6 17 -17
17 -25 0 -9 8 -6 25 10 l24 25 -24 25 c-17 16 -25 19 -25 10z"/>
<path d="M341 986 c-8 -9 -21 -16 -30 -16 -14 -1 -14 -2 2 -14 9 -7 17 -19 17
-25 0 -7 6 -10 13 -7 6 3 20 9 30 12 18 7 24 24 7 24 -6 0 -14 9 -18 21 -7 19
-9 19 -21 5z"/>
<path d="M192 660 c-6 -11 -23 -22 -37 -26 l-25 -6 25 -24 c14 -13 25 -33 25
-46 0 -23 0 -23 23 4 12 14 32 29 45 33 l23 7 -26 20 c-14 10 -25 28 -25 39 0
25 -12 24 -28 -1z"/>
<path d="M1140 655 c0 -8 -13 -23 -29 -33 l-29 -18 29 -16 c16 -10 29 -24 29
-33 0 -23 15 -18 28 10 6 14 18 25 26 25 26 0 28 20 2 29 -13 6 -27 19 -31 30
-7 24 -25 28 -25 6z"/>
<path d="M281 405 c-104 -23 -185 -53 -221 -83 -44 -38 -37 -71 23 -106 l43
-25 67 20 c92 27 108 23 73 -17 -14 -18 -26 -36 -26 -40 0 -5 21 -23 48 -41
190 -129 422 -147 617 -48 39 20 83 47 99 60 29 23 29 24 13 49 -24 36 -21 46
11 46 26 0 27 2 24 40 -3 23 0 40 6 40 6 0 33 -23 60 -52 l49 -51 37 22 c72
45 53 100 -48 140 -48 19 -163 51 -183 51 -5 0 -8 -24 -5 -53 4 -49 2 -56 -22
-74 -14 -11 -65 -33 -113 -49 -157 -51 -371 -35 -435 33 -19 21 -23 35 -23 89
0 73 5 70 -94 49z"/>
<path d="M562 328 c-7 -7 -12 -32 -12 -55 l0 -44 98 3 97 3 3 38 c5 58 -8 67
-97 67 -47 0 -82 -5 -89 -12z"/>
<path d="M915 328 c-11 -6 -45 -19 -75 -29 -42 -13 -56 -22 -58 -38 l-3 -21
66 24 c64 23 105 50 105 68 0 11 -11 10 -35 -4z"/>
<path d="M409 291 c6 -10 32 -26 58 -35 57 -20 53 -20 53 3 0 15 -13 23 -54
35 -68 20 -69 20 -57 -3z"/>
</g>
</svg>
